<?xml version="1.0" standalone="no"?>
<!DOCTYPE svg PUBLIC "-//W3C//DTD SVG 20010904//EN"
 "http://www.w3.org/TR/2001/REC-SVG-20010904/DTD/svg10.dtd">
<svg version="1.0" xmlns="http://www.w3.org/2000/svg"
 width="700.000000pt" height="700.000000pt" viewBox="0 0 700.000000 700.000000"
 preserveAspectRatio="xMidYMid meet">
<metadata>
Created by potrace 1.11, written by Peter Selinger 2001-2013
</metadata>
<g transform="translate(0.000000,700.000000) scale(0.100000,-0.100000)"
fill="#000000" stroke="none">
<path d="M3388 6964 c-2 -1 -37 -4 -78 -7 -228 -16 -520 -113 -730 -241 -221
-136 -449 -362 -571 -567 -47 -79 -116 -221 -145 -297 -32 -85 -81 -271 -89
-342 -4 -30 -9 -64 -11 -75 -8 -36 -13 -425 -6 -426 4 -1 778 -2 1720 -3
l1713 -2 -2 170 c-6 412 -79 687 -260 979 -110 176 -285 367 -433 472 -16 11
-40 29 -55 40 -78 61 -299 170 -431 213 -110 36 -247 66 -350 77 -65 7 -268
14 -272 9z m217 -387 c258 -76 408 -346 335 -600 -25 -90 -61 -150 -130 -217
-156 -152 -369 -183 -569 -82 -148 75 -249 236 -257 408 -6 151 53 289 166
391 27 25 123 83 143 87 7 2 19 6 27 9 64 27 201 29 285 4z m953 -861 c41 -21
96 -79 117 -123 39 -81 21 -191 -42 -260 -111 -123 -304 -103 -392 40 -31 51
-40 156 -17 209 30 71 94 127 166 148 39 12 134 4 168 -14z"/>
<path d="M906 4744 c-189 -44 -343 -211 -372 -403 -4 -25 -8 -719 -9 -1541
l-2 -1495 -241 -599 c-133 -330 -240 -601 -237 -604 9 -9 1950 -5 1948 5 -1 5
-110 280 -242 611 l-241 602 0 1719 0 1719 -272 0 c-194 -1 -290 -5 -332 -14z"/>
<path d="M1754 3040 l1 -1718 244 -245 244 -244 1228 1 1229 1 245 245 245
245 0 1716 0 1717 -1718 0 -1718 0 0 -1718z m2504 1219 c71 -14 130 -60 165
-129 25 -48 28 -63 24 -120 -8 -102 -56 -173 -146 -213 -43 -19 -71 -20 -820
-20 -546 0 -788 3 -817 11 -51 15 -119 72 -146 126 -26 50 -32 146 -13 193 33
78 98 135 174 152 55 13 1516 13 1579 0z m30 -987 c89 -30 162 -132 162 -226
-1 -102 -49 -180 -138 -223 l-57 -28 -780 0 c-880 0 -834 -4 -914 78 -132 133
-62 367 122 407 56 11 1568 4 1605 -8z"/>
<path d="M5434 3043 l1 -1715 -172 -432 c-95 -237 -173 -431 -173 -431 0 0
-33 -82 -73 -182 -58 -144 -70 -183 -58 -184 21 -1 1899 -1 1928 0 l21 1 -19
40 c-10 21 -19 45 -19 53 0 7 -4 17 -9 22 -4 6 -41 93 -81 195 -40 102 -78
199 -85 215 -7 17 -43 107 -80 200 -37 94 -73 184 -80 200 -7 17 -37 89 -66
160 l-52 130 -2 1515 c-1 1444 -2 1518 -19 1570 -44 129 -128 236 -231 294
-101 56 -153 63 -456 64 l-275 0 0 -1715z"/>
</g>
</svg>
